<svg width="15" height="14" viewBox="0 0 15 14" fill="none" xmlns="http://www.w3.org/2000/svg">
<path fill-rule="evenodd" clip-rule="evenodd" d="M7.79042 1.51953C6.42442 1.51953 6.29443 3.69848 5.48243 4.46964C4.66843 5.2389 2.14243 4.35974 1.79043 5.72585C1.44043 7.09385 3.71443 7.55806 3.99643 8.7309C4.27643 9.90374 2.88843 11.5522 4.07443 12.3745C5.26243 13.193 6.54042 11.3381 7.79042 11.3381C9.04042 11.3381 10.3184 13.193 11.5064 12.3745C12.6944 11.5522 11.3044 9.90374 11.5844 8.7309C11.8664 7.55806 14.1404 7.09385 13.7904 5.72585C13.4384 4.35974 10.9124 5.2389 10.0984 4.46964C9.28642 3.69848 9.15642 1.51953 7.79042 1.51953Z" stroke="#2699FB" stroke-width="2" stroke-linecap="round" stroke-linejoin="round"/>
</svg>
