<svg width="41" height="41" viewBox="0 0 41 41" fill="none" xmlns="http://www.w3.org/2000/svg">
<path d="M9.93555 26.0073L15.9215 18.2293L22.7495 23.5893L28.6075 16.0293" stroke="#2699FB" stroke-width="2" stroke-linecap="round" stroke-linejoin="round"/>
<path fill-rule="evenodd" clip-rule="evenodd" d="M35.4348 1C37.5588 1 39.2788 2.72 39.2788 4.844C39.2788 6.966 37.5588 8.688 35.4348 8.688C33.3108 8.688 31.5908 6.966 31.5908 4.844C31.5908 2.72 33.3108 1 35.4348 1Z" stroke="#2699FB" stroke-width="2" stroke-linecap="round" stroke-linejoin="round"/>
<path d="M37.612 14.8383C37.878 16.6283 38 18.6442 38 20.9062C38 34.7823 33.376 39.4062 19.5 39.4062C5.626 39.4062 1 34.7823 1 20.9062C1 7.03225 5.626 2.40625 19.5 2.40625C21.72 2.40625 23.702 2.52425 25.466 2.78025" stroke="#2699FB" stroke-width="2" stroke-linecap="round" stroke-linejoin="round"/>
</svg>
