<?xml version="1.0" encoding="UTF-8"?>
<svg version="1.1" xmlns="http://www.w3.org/2000/svg" width="482" height="236">
<path d="M0 0 C1.10190674 0.62052246 2.20381348 1.24104492 3.33911133 1.88037109 C3.94443192 2.21749115 4.5497525 2.55461121 5.17341614 2.90194702 C7.09528013 3.97566947 9.00810676 5.06445106 10.92114258 6.15380859 C12.1842604 6.86182919 13.44792899 7.56886814 14.7121582 8.27490234 C15.96304111 8.97631192 17.21369372 9.67813235 18.46411133 10.38037109 C19.07705048 10.72416809 19.68998962 11.06796509 20.32150269 11.42218018 C23.31173899 13.11206515 26.25899977 14.84145303 29.15795898 16.68408203 C30.21031738 17.34182617 31.26267578 17.99957031 32.34692383 18.67724609 C33.73004761 19.5732251 33.73004761 19.5732251 35.14111328 20.48730469 C37.66190993 21.79297074 37.66190993 21.79297074 40.12207031 20.94067383 C41.41479858 20.24180054 41.41479858 20.24180054 42.73364258 19.52880859 C43.84320313 18.96508545 44.95276367 18.4013623 46.09594727 17.82055664 C47.3672259 17.14655527 48.63700855 16.46972692 49.90551758 15.79052734 C50.58737122 15.42788284 51.26922485 15.06523834 51.97174072 14.69160461 C53.41124253 13.92540325 54.85009353 13.15797806 56.28833008 12.3894043 C58.46142695 11.22817983 60.63639761 10.07053379 62.81176758 8.91357422 C63.51321899 8.5396756 64.21467041 8.16577698 64.93737793 7.7805481 C66.32437328 7.04169218 67.7123035 6.30458836 69.10119629 5.56930542 C72.74921855 3.62909926 76.28860162 1.58460344 79.81176758 -0.57666016 C82.58715507 -2.08899117 83.78543733 -2.4743675 87.04614258 -2.67431641 C92.6433407 -0.84811194 97.6024486 1.91801089 102.73364258 4.77880859 C103.8813916 5.40779053 105.02914062 6.03677246 106.21166992 6.68481445 C114.57282015 11.27325056 122.87542781 15.96800072 131.16259766 20.68847656 C138.19821842 24.68949428 145.2949204 28.56678213 152.42114258 32.40380859 C174.50229299 44.29745901 174.50229299 44.29745901 176.73364258 46.52880859 C176.7742809 48.19497974 176.77636358 49.86268954 176.73364258 51.52880859 C168.59964618 52.53324883 163.29122987 49.10624885 156.35864258 45.15380859 C155.18949056 44.50310685 154.0194761 43.85395244 152.84863281 43.20629883 C149.46729602 41.33086105 146.10091704 39.42937851 142.73364258 37.52880859 C141.1503201 36.65013649 139.56586098 35.77350599 137.97973633 34.89990234 C132.48577748 31.87140802 127.01346642 28.80443676 121.53881836 25.74121094 C118.57468831 24.0838702 115.60945582 22.42854595 112.64328003 20.77487183 C110.91842667 19.81217601 109.19526593 18.84644947 107.47216797 17.88061523 C105.29427054 16.66629493 103.10529544 15.47161228 100.90527344 14.29785156 C97.73364258 12.52880859 97.73364258 12.52880859 94.78271484 10.48242188 C91.67678367 8.49060584 89.3615763 7.24411284 85.73364258 6.52880859 C80.05148428 8.0416108 75.40094213 10.8483164 70.42114258 13.90380859 C69.09230644 14.67254606 67.76093177 15.43691287 66.42700195 16.19677734 C63.96518595 17.60853137 61.52031599 19.04247308 59.09179688 20.51074219 C55.66613862 22.56937477 52.20964451 24.55680083 48.73364258 26.52880859 C51.93857565 29.07492834 55.30181269 31.03402824 58.88989258 32.99755859 C59.47403931 33.3191394 60.05818604 33.64072021 60.66003418 33.9720459 C62.51632724 34.99386883 64.37469982 36.01181501 66.23364258 37.02880859 C68.68349205 38.36907644 71.1310877 39.7133341 73.57739258 41.06005859 C75.20451172 41.95047852 75.20451172 41.95047852 76.86450195 42.85888672 C77.81131836 43.40996094 78.75813477 43.96103516 79.73364258 44.52880859 C80.44083435 44.85974518 81.14802612 45.19068176 81.87664795 45.53164673 C84.97718023 48.86620933 84.32320036 52.76685666 84.31469727 57.15332031 C84.32813171 58.14059113 84.34156616 59.12786194 84.35540771 60.14505005 C84.39347694 63.41640217 84.40122119 66.68693611 84.40551758 69.95849609 C84.41836611 72.22909893 84.43182226 74.4996984 84.44586182 76.77029419 C84.46983466 81.53346433 84.47722074 86.29634408 84.47485352 91.05957031 C84.47444699 97.16586149 84.52904907 103.2702924 84.59794235 109.3761425 C84.64240177 114.06707319 84.65053111 118.75755342 84.64841461 123.44867325 C84.65313855 125.69980405 84.67085311 127.95094616 84.70174408 130.20186996 C84.74091461 133.35107629 84.72945853 136.49623731 84.70532227 139.64550781 C84.72780029 140.57659363 84.75027832 141.50767944 84.7734375 142.46697998 C84.72292814 145.0583284 84.60231075 147.08499334 83.73364258 149.52880859 C81.32517166 151.8220488 78.73796243 153.15466569 75.73364258 154.52880859 C74.7476709 155.10993408 73.76169922 155.69105957 72.74584961 156.28979492 C69.78593327 157.97806488 66.82376447 159.662196 63.85864258 161.34130859 C62.29243164 162.2375293 62.29243164 162.2375293 60.69458008 163.15185547 C59.69942383 163.71582031 58.70426758 164.27978516 57.67895508 164.86083984 C56.77677246 165.37364502 55.87458984 165.8864502 54.94506836 166.41479492 C52.73364258 167.52880859 52.73364258 167.52880859 50.73364258 167.52880859 C50.73364258 168.18880859 50.73364258 168.84880859 50.73364258 169.52880859 C51.42482178 169.77679199 52.11600098 170.02477539 52.828125 170.28027344 C56.17376418 171.71793404 59.15189631 173.57069363 62.22192383 175.50537109 C67.47110751 178.71093287 72.7817321 181.74736712 78.28051758 184.50537109 C78.90497269 184.8400943 79.5294278 185.1748175 80.17280579 185.51968384 C84.61216446 187.67167961 87.49423018 187.67334574 92.03967285 186.2437439 C94.15168391 185.38409272 95.71494793 184.39557291 97.41333008 182.87255859 C102.37113378 178.84784522 107.93720473 176.01911645 113.55020142 173.03234863 C116.70010812 171.3427939 119.8190134 169.59795441 122.94067383 167.85693359 C128.22375325 164.91893968 133.51293163 161.99226555 138.80786133 159.07568359 C139.46535873 158.71345703 140.12285614 158.35123047 140.80027771 157.97802734 C143.35626962 156.57002287 145.91236587 155.16220804 148.46859741 153.75463867 C150.2213008 152.78926785 151.97357289 151.82311408 153.72583008 150.85693359 C154.78181396 150.27782227 155.83779785 149.69871094 156.92578125 149.10205078 C159.23195047 147.80990623 161.47075229 146.45581846 163.71411133 145.06005859 C167.01268581 143.38730155 168.57028446 143.18688671 172.17114258 143.77880859 C173.03610352 143.90771484 173.90106445 144.03662109 174.79223633 144.16943359 C175.43290039 144.28802734 176.07356445 144.40662109 176.73364258 144.52880859 C176.39061661 147.22720739 176.07038964 148.26562603 173.88964844 149.9699707 C173.08406494 150.41091064 172.27848145 150.85185059 171.44848633 151.30615234 C170.08240234 152.06605469 170.08240234 152.06605469 168.6887207 152.84130859 C167.19501953 153.64568359 167.19501953 153.64568359 165.67114258 154.46630859 C164.64053711 155.03478516 163.60993164 155.60326172 162.5480957 156.18896484 C159.28450986 157.98383822 156.01070542 159.75867705 152.73364258 161.52880859 C150.71411063 162.6238594 148.69457937 163.71891145 146.67504883 164.81396484 C143.6953515 166.42760061 140.71456428 168.03907675 137.73071289 169.64501953 C131.7251253 172.88269593 125.76145447 176.18349862 119.83349609 179.5612793 C117.90782498 180.65559772 115.97736514 181.74153638 114.04199219 182.81860352 C109.47076411 185.36491825 105.00460561 187.9732204 100.63208008 190.84912109 C89.4099266 197.98600711 89.4099266 197.98600711 82.98364258 196.88818359 C79.49758164 195.39693448 76.42955886 193.3149316 73.30200195 191.18994141 C68.36207057 187.99495156 63.14085095 185.2776516 57.95822144 182.50094604 C56.06626251 181.47719561 54.19054856 180.42788476 52.31591797 179.37280273 C51.13906085 178.72502679 49.96190855 178.07778677 48.78442383 177.43115234 C47.73939697 176.84841553 46.69437012 176.26567871 45.61767578 175.6652832 C42.33122746 174.37023394 41.03159536 174.39065458 37.73364258 175.52880859 C35.55112985 176.53229998 35.55112985 176.53229998 33.42504883 177.82958984 C32.1964917 178.54562378 32.1964917 178.54562378 30.94311523 179.27612305 C30.06961426 179.79263428 29.19611328 180.30914551 28.29614258 180.84130859 C26.42055391 181.9258766 24.54422652 183.00916792 22.66723633 184.09130859 C19.68120405 185.81998587 16.69633044 187.55053328 13.71459961 189.28662109 C10.77288393 190.99024738 7.81765635 192.66795084 4.85864258 194.34130859 C3.95057861 194.87473877 3.04251465 195.40816895 2.10693359 195.95776367 C1.24382568 196.44140381 0.38071777 196.92504395 -0.50854492 197.42333984 C-1.25990723 197.85493408 -2.01126953 198.28652832 -2.78540039 198.73120117 C-7.29457712 200.18086466 -11.0654742 199.06186753 -15.29467773 197.18457031 C-16.30111328 196.61496582 -17.30754883 196.04536133 -18.34448242 195.45849609 C-19.49126465 194.81710693 -20.63804688 194.17571777 -21.81958008 193.51489258 C-23.05191931 192.81133823 -24.28417626 192.10763975 -25.51635742 191.40380859 C-26.80919508 190.67622581 -28.1026633 189.94976245 -29.39672852 189.22436523 C-32.05840457 187.73064539 -34.71683238 186.23137977 -37.37280273 184.72753906 C-42.0935988 182.05722662 -46.83658631 179.4278787 -51.58129883 176.80029297 C-54.89085725 174.96658572 -58.19591583 173.12495149 -61.50073242 171.28271484 C-65.61836197 168.99118025 -69.74480806 166.7173704 -73.88381958 164.46479797 C-76.37315547 163.10922873 -78.85901906 161.74736017 -81.34466553 160.38504028 C-83.09338658 159.43000702 -84.84704731 158.48403609 -86.60083008 157.53833008 C-88.19483643 156.66349976 -88.19483643 156.66349976 -89.82104492 155.77099609 C-90.75416504 155.2642334 -91.68728516 154.7574707 -92.64868164 154.23535156 C-99.79078252 149.57919738 -99.79078252 149.57919738 -100.73161507 145.52290154 C-100.91783479 143.01797814 -100.94187694 140.55621631 -100.91333008 138.04443359 C-100.92209167 137.09588501 -100.93085327 136.14733643 -100.93988037 135.17004395 C-100.96186066 132.03916483 -100.94732599 128.9097017 -100.93041992 125.77880859 C-100.93378843 123.60074594 -100.93864135 121.42268512 -100.94491577 119.24462891 C-100.95228527 114.68162119 -100.94157864 110.11910312 -100.91821289 105.55615234 C-100.88972561 99.70811997 -100.90612909 93.86123491 -100.93607521 88.01324463 C-100.95414576 83.51618815 -100.94839115 79.01940355 -100.93543625 74.52233887 C-100.93210159 72.36616887 -100.93619137 70.20997415 -100.94783401 68.05383301 C-100.96053826 65.03961848 -100.94117064 62.02725992 -100.91333008 59.01318359 C-100.92345123 58.12264282 -100.93357239 57.23210205 -100.94400024 56.3145752 C-100.86849385 51.90047135 -100.72169534 50.10144966 -97.88973999 46.53993225 C-95.27683448 44.53684046 -92.7482054 42.92005866 -89.82885742 41.39990234 C-88.78044678 40.84641113 -87.73203613 40.29291992 -86.65185547 39.72265625 C-85.53464111 39.14306152 -84.41742676 38.5634668 -83.26635742 37.96630859 C-80.89668636 36.71456143 -78.52806654 35.46102512 -76.16088867 34.20458984 C-75.56927444 33.89152893 -74.97766022 33.57846802 -74.36811829 33.25592041 C-69.16626849 30.49594445 -64.04991111 27.60335499 -58.95385742 24.65380859 C-49.14032629 18.9876857 -39.2286803 13.50813979 -29.30029297 8.046875 C-28.70786301 7.7207019 -28.11543304 7.39452881 -27.50505066 7.05847168 C-25.79315925 6.11851046 -24.07765122 5.18514546 -22.36206055 4.25195312 C-20.43601193 3.17986707 -18.52892076 2.07197844 -16.6550293 0.91113281 C-15.89254883 0.44336426 -15.13006836 -0.0244043 -14.34448242 -0.50634766 C-13.71445313 -0.91377197 -13.08442383 -1.32119629 -12.43530273 -1.7409668 C-8.00848928 -3.2313539 -4.11770387 -1.85464411 0 0 Z M-19.32885742 10.96630859 C-20.38032959 11.5723291 -21.43180176 12.17834961 -22.51513672 12.80273438 C-24.70730016 14.06845852 -26.89192916 15.3473156 -29.0690918 16.63867188 C-32.94615816 18.93068835 -36.86627083 21.13887424 -40.79467773 23.34130859 C-43.61404868 24.92355816 -46.42500158 26.52001435 -49.23510742 28.11865234 C-53.59702156 30.5929758 -57.97345749 33.04007717 -62.36010742 35.47021484 C-62.96147018 35.8034375 -63.56283295 36.13666016 -64.18241882 36.47998047 C-67.10582525 38.0990299 -70.03064765 39.71543481 -72.95703125 41.32910156 C-74.55840942 42.2149292 -74.55840942 42.2149292 -76.19213867 43.11865234 C-77.12453369 43.63290771 -78.05692871 44.14716309 -79.01757812 44.67700195 C-80.08967529 45.28809814 -81.16177246 45.89919434 -82.26635742 46.52880859 C-83.10744553 46.80348969 -83.94853363 47.07817078 -84.81510925 47.36117554 C-88.12548966 48.70387265 -89.9264289 49.80011468 -92.26635742 52.52880859 C-94.34873456 58.98217 -93.84660076 66.18899203 -93.84057617 72.88818359 C-93.86510843 74.91833848 -93.89157147 76.94847087 -93.9198761 78.97857666 C-93.96617611 83.23259651 -93.9727731 87.48455832 -93.95458984 91.73876953 C-93.93681875 97.17408544 -94.04204006 102.59915446 -94.1807127 108.03243637 C-94.26971995 112.22647318 -94.28010581 116.41806657 -94.26865578 120.61292267 C-94.27488855 122.61451215 -94.30806861 124.61621601 -94.36942101 126.61687469 C-94.96708184 137.1894829 -94.96708184 137.1894829 -90.59951019 146.33406639 C-86.52542059 149.51409252 -82.07562428 151.68256456 -77.32042122 153.65615845 C-74.48281146 154.8616909 -71.83883232 156.36320803 -69.16479492 157.89208984 C-67.32505079 158.87778343 -65.48389841 159.86085306 -63.64135742 160.84130859 C-56.52156503 164.66354895 -49.43128687 168.52726537 -42.40380859 172.51708984 C-40.48940209 173.60224933 -38.57030917 174.67918528 -36.64648438 175.74755859 C-31.95253148 178.3649594 -27.40001425 181.06764663 -22.94213867 184.07177734 C-14.32653494 190.01154611 -14.32653494 190.01154611 -4.34448242 190.91943359 C-0.83658364 189.43882403 2.19990908 187.34174432 5.30151367 185.15429688 C9.30160595 182.48087644 13.53971244 180.24549853 17.75634766 177.93481445 C22.77710195 175.1827939 27.75410932 172.35451502 32.73364258 169.52880859 C29.4739274 165.83105952 25.74856314 163.72651002 21.41333008 161.52490234 C20.71345978 161.16034439 20.01358948 160.79578644 19.29251099 160.42018127 C16.3129921 158.86841173 13.32451444 157.33424488 10.33666992 155.79858398 C8.15063596 154.67184803 5.96943146 153.536149 3.78833008 152.39990234 C2.77269485 151.88416908 2.77269485 151.88416908 1.73654175 151.35801697 C-1.51630339 149.66206842 -3.19041408 148.64272361 -5.26635742 145.52880859 C-5.52362633 143.65595341 -5.52362633 143.65595341 -5.53378296 141.51246643 C-5.54231293 140.69795013 -5.5508429 139.88343384 -5.55963135 139.04423523 C-5.55872498 138.1542836 -5.5578186 137.26433197 -5.55688477 136.34741211 C-5.56360199 135.40730286 -5.57031921 134.4671936 -5.57723999 133.49859619 C-5.5962681 130.38491561 -5.60014649 127.27144998 -5.60229492 124.15771484 C-5.60871905 121.99682017 -5.61544712 119.83592639 -5.62246704 117.67503357 C-5.63445154 113.14311709 -5.63814661 108.61127691 -5.63696289 104.0793457 C-5.63675953 98.26722459 -5.66407397 92.45559152 -5.69850731 86.64358616 C-5.7207242 82.18008672 -5.72480205 77.71670574 -5.72374344 73.25315666 C-5.72610679 71.11009983 -5.73497136 68.96704009 -5.75040817 66.82403755 C-5.76996437 63.82887516 -5.76427098 60.83477849 -5.75219727 57.83959961 C-5.76343628 56.95167221 -5.77467529 56.06374481 -5.78625488 55.14891052 C-5.72466083 49.14781625 -5.72466083 49.14781625 -3.44796753 46.07279968 C-0.39488079 43.91203837 2.80858327 42.13365625 6.12426758 40.41943359 C6.82888123 40.04776062 7.53349487 39.67608765 8.25946045 39.29315186 C10.49728319 38.11475265 12.74030637 36.94667152 14.98364258 35.77880859 C16.50743554 34.97870396 18.03087715 34.17792979 19.55395508 33.37646484 C23.27649434 31.419471 27.00372966 29.47170921 30.73364258 27.52880859 C27.27555971 24.62007413 23.82298289 22.34222398 19.83911133 20.21630859 C18.71827148 19.61560547 17.59743164 19.01490234 16.44262695 18.39599609 C15.28053711 17.77982422 14.11844727 17.16365234 12.92114258 16.52880859 C11.7706543 15.91263672 10.62016602 15.29646484 9.43481445 14.66162109 C7.20058281 13.46832374 4.95832089 12.28991514 2.70751953 11.12817383 C-0.26635742 9.52880859 -0.26635742 9.52880859 -2.484375 8.00952148 C-8.93051514 3.77428495 -13.30250944 7.2891317 -19.32885742 10.96630859 Z M32.20239258 34.38037109 C31.0809082 34.98494141 29.95942383 35.58951172 28.80395508 36.21240234 C27.92271973 36.69169189 27.92271973 36.69169189 27.02368164 37.18066406 C25.27078741 38.13361502 23.51397084 39.07933979 21.75708008 40.02490234 C17.6527577 42.21462322 17.6527577 42.21462322 13.61923218 44.52908325 C11.73364258 45.52880859 11.73364258 45.52880859 9.13052368 46.37203979 C5.80856473 47.70668924 4.04214852 48.76290167 1.73364258 51.52880859 C-0.17469296 58.0638988 0.57646739 65.29879915 0.75708008 72.02099609 C0.77574033 74.05262774 0.7899707 76.08430451 0.79995728 78.11599731 C0.8380701 83.45358368 0.93623354 88.78843179 1.04699707 94.12493896 C1.14944945 99.57428949 1.1949988 105.02408429 1.24536133 110.47412109 C1.35248558 121.16021755 1.52306728 131.84428506 1.73364258 142.52880859 C2.24772014 142.81383901 2.7617977 143.09886942 3.29145336 143.39253712 C5.64832703 144.69963864 8.00483 146.0074071 10.36132812 147.31518555 C11.16993034 147.76349983 11.97853256 148.21181412 12.81163788 148.67371368 C17.12307021 151.06705249 21.42041436 153.48039191 25.69067383 155.94677734 C26.51245117 156.41535156 27.33422852 156.88392578 28.1809082 157.36669922 C29.81456972 158.29887107 31.4418276 159.24232377 33.0637207 160.19482422 C33.86874023 160.64921875 34.67375977 161.10361328 35.50317383 161.57177734 C36.5488855 162.17542114 36.5488855 162.17542114 37.61572266 162.79125977 C41.41763527 164.1152457 44.08015763 162.83590657 47.60864258 161.17773438 C49.15551758 160.3344458 49.15551758 160.3344458 50.73364258 159.47412109 C51.86801758 158.85923828 53.00239258 158.24435547 54.17114258 157.61083984 C55.35867162 156.95854897 56.54617137 156.30620476 57.73364258 155.65380859 C58.92082785 155.00869782 60.1083252 154.364161 61.29614258 153.72021484 C64.45009025 152.00346378 67.60048917 150.28322551 70.73364258 148.52880859 C71.60623215 148.18560074 72.47882172 147.84239288 73.37785339 147.48878479 C76.16568444 145.60995709 76.16568444 145.60995709 76.33491516 141.59944153 C76.34943903 139.91942842 76.33604928 138.23904203 76.30126953 136.55932617 C76.30199966 135.64205246 76.3027298 134.72477875 76.30348206 133.77970886 C76.29999478 130.74365379 76.26107949 127.70912732 76.22192383 124.67333984 C76.21259977 122.57013284 76.20548174 120.46691498 76.20048523 118.36369324 C76.18138352 112.82481974 76.13225485 107.28660058 76.07696533 101.74798584 C76.02584155 96.09754286 76.00298585 90.44699426 75.9777832 84.79638672 C75.92413962 73.70690632 75.83878804 62.61791184 75.73364258 51.52880859 C74.8918042 51.06506836 74.04996582 50.60132812 73.18261719 50.12353516 C70.03078339 48.38710702 66.87934833 46.64995627 63.72802734 44.91259766 C62.36941046 44.16370545 61.01068848 43.41500387 59.65185547 42.66650391 C57.68794901 41.58466047 55.72443357 40.50211021 53.76098633 39.41943359 C53.16277573 39.09009827 52.56456512 38.76076294 51.94822693 38.42144775 C47.1629742 35.78139426 47.1629742 35.78139426 44.80960083 34.39685059 C39.10733152 31.04455664 37.93478639 31.28396853 32.20239258 34.38037109 Z " fill="#010101" transform="translate(111.266357421875,13.47119140625)"/>
<path d="M0 0 C0.87398438 -0.020625 1.74796875 -0.04125 2.6484375 -0.0625 C9.33536235 -0.10218501 16.28247693 0.51998042 21.5625 5 C22.95607855 8.34458851 23.00328088 10.66412371 22.5 14.25 C20 17.1875 20 17.1875 17.5 19.25 C18.139375 20.075 18.77875 20.9 19.4375 21.75 C21.96413081 25.48191406 22.19360228 28.80723303 22.5 33.25 C25.4130858 27.00384365 27.25434478 20.56009508 29.125 13.9375 C29.74052353 11.77426543 30.35763009 9.61148046 30.9765625 7.44921875 C31.24549316 6.49877686 31.51442383 5.54833496 31.79150391 4.5690918 C32.5 2.25 32.5 2.25 33.5 0.25 C37.46 0.25 41.42 0.25 45.5 0.25 C48.23669505 7.12120972 50.23192012 14.12172762 52.1875 21.25 C52.50783203 22.40628906 52.82816406 23.56257813 53.15820312 24.75390625 C53.94203539 27.58506159 54.72254438 30.41708825 55.5 33.25 C55.53758423 31.80379272 55.53758423 31.80379272 55.57592773 30.32836914 C55.66985306 26.76312158 55.77010939 23.19807567 55.87231445 19.63305664 C55.91571985 18.08785711 55.95739071 16.54260786 55.99731445 14.99731445 C56.05488199 12.78060904 56.11861424 10.5641552 56.18359375 8.34765625 C56.20030624 7.6528566 56.21701874 6.95805695 56.23423767 6.24220276 C56.38612829 1.36387171 56.38612829 1.36387171 57.5 0.25 C59.68639453 0.17741054 61.87500389 0.16626217 64.0625 0.1875 C65.85880859 0.20103516 65.85880859 0.20103516 67.69140625 0.21484375 C68.61824219 0.22644531 69.54507813 0.23804687 70.5 0.25 C72.41548419 5.21284539 74.06979168 10.11990495 75.5 15.25 C75.91572266 13.75146484 75.91572266 13.75146484 76.33984375 12.22265625 C76.70555549 10.91922209 77.07145038 9.61583931 77.4375 8.3125 C77.61990234 7.65314453 77.80230469 6.99378906 77.99023438 6.31445312 C79.38671875 1.36328125 79.38671875 1.36328125 80.5 0.25 C82.66480797 0.1510706 84.83293785 0.120289 87 0.125 C88.1859375 0.12242188 89.371875 0.11984375 90.59375 0.1171875 C93.5 0.25 93.5 0.25 94.5 1.25 C94.58858646 3.98894085 94.61523479 6.7025327 94.59765625 9.44140625 C94.5962413 10.26124496 94.59482635 11.08108368 94.59336853 11.92576599 C94.58775289 14.55471382 94.57519779 17.18357773 94.5625 19.8125 C94.55748701 21.59049357 94.55292376 23.36848846 94.54882812 25.14648438 C94.53777839 29.51435545 94.52050331 33.88216348 94.5 38.25 C89.88 38.25 85.26 38.25 80.5 38.25 C80.005 34.785 80.005 34.785 79.5 31.25 C78.84 33.56 78.18 35.87 77.5 38.25 C74.2 38.25 70.9 38.25 67.5 38.25 C66.51 35.28 65.52 32.31 64.5 29.25 C64.17 32.22 63.84 35.19 63.5 38.25 C56.24 38.25 48.98 38.25 41.5 38.25 C41.005 34.29 41.005 34.29 40.5 30.25 C36.54 30.745 36.54 30.745 32.5 31.25 C31.84 33.56 31.18 35.87 30.5 38.25 C23.24 38.25 15.98 38.25 8.5 38.25 C7.34429296 34.78287889 7.17164707 31.7085044 6.9375 28.0625 C6.85371094 26.79019531 6.76992188 25.51789063 6.68359375 24.20703125 C6.62300781 23.23121094 6.56242187 22.25539063 6.5 21.25 C5.51 21.25 4.52 21.25 3.5 21.25 C3.83 26.86 4.16 32.47 4.5 38.25 C-0.45 38.25 -5.4 38.25 -10.5 38.25 C-10.52464928 32.99894558 -10.54283568 27.74792455 -10.55493164 22.49682617 C-10.55997218 20.70905979 -10.56680454 18.92129755 -10.57543945 17.13354492 C-10.5875173 14.56948832 -10.59323094 12.00548603 -10.59765625 9.44140625 C-10.60281754 8.6372377 -10.60797882 7.83306915 -10.61329651 7.00453186 C-10.61349215 5.08598285 -10.56201983 3.16754632 -10.5 1.25 C-8.24166036 -1.00833964 -3.02808796 0.01725406 0 0 Z M3.5 5.25 C3.5 8.88 3.5 12.51 3.5 16.25 C7.24275212 15.67874646 7.24275212 15.67874646 8.5 14.25 C8.75003964 10.79178598 8.75003964 10.79178598 8.5 7.25 C7.84 6.59 7.18 5.93 6.5 5.25 C5.51 5.25 4.52 5.25 3.5 5.25 Z M35.5 17.25 C34.84 19.89 34.18 22.53 33.5 25.25 C35.15 25.25 36.8 25.25 38.5 25.25 C37.84 22.61 37.18 19.97 36.5 17.25 C36.17 17.25 35.84 17.25 35.5 17.25 Z " fill="#964494" transform="translate(348.5,78.75)"/>
<path d="M0 0 C3.96 0 7.92 0 12 0 C14.82335565 7.0192965 16.76344968 14.18941214 18.6875 21.5 C19.00783203 22.70398438 19.32816406 23.90796875 19.65820312 25.1484375 C20.44241753 28.09802004 21.22291227 31.04853343 22 34 C22.03758423 32.50835327 22.03758423 32.50835327 22.07592773 30.98657227 C22.16984882 27.30951253 22.27010619 23.6326485 22.37231445 19.95581055 C22.41572146 18.362107 22.45739219 16.7683552 22.49731445 15.17456055 C22.55487807 12.88836092 22.61861149 10.60240551 22.68359375 8.31640625 C22.70030624 7.59973282 22.71701874 6.88305939 22.73423767 6.14466858 C22.88612829 1.11387171 22.88612829 1.11387171 24 0 C27.16566942 -0.75156486 29.84459722 -0.82187235 33 0 C36.01482931 2.74936792 37.97131455 6.02046539 40.0625 9.5 C40.64193359 10.40621094 41.22136719 11.31242187 41.81835938 12.24609375 C43.24070124 14.47952312 44.62425539 16.73756992 46 19 C46.33 12.73 46.66 6.46 47 0 C48.98 0 50.96 0 53 0 C54 1 54 1 54.11352539 4.51000977 C54.11336626 6.07048422 54.10767142 7.63096393 54.09765625 9.19140625 C54.0962413 10.01124496 54.09482635 10.83108368 54.09336853 11.67576599 C54.08775289 14.30471382 54.07519779 16.93357773 54.0625 19.5625 C54.05748701 21.34049357 54.05292376 23.11848846 54.04882812 24.89648438 C54.03777839 29.26435545 54.02050331 33.63216348 54 38 C43.02541905 38.81208638 43.02541905 38.81208638 39.18359375 35.76953125 C38.60738281 34.79371094 38.03117187 33.81789062 37.4375 32.8125 C36.83808594 31.84957031 36.23867188 30.88664062 35.62109375 29.89453125 C35.08613281 28.93933594 34.55117188 27.98414062 34 27 C33.01 25.35 32.02 23.7 31 22 C30.67 27.28 30.34 32.56 30 38 C22.74 38 15.48 38 8 38 C7.67 35.36 7.34 32.72 7 30 C3.04 30.495 3.04 30.495 -1 31 C-1.66 33.31 -2.32 35.62 -3 38 C-5.64 38 -8.28 38 -11 38 C-8.85439656 28.96322315 -6.4840926 20.02170969 -3.8125 11.125 C-3.55065918 10.25133789 -3.28881836 9.37767578 -3.01904297 8.47753906 C-1.1354612 2.27092241 -1.1354612 2.27092241 0 0 Z M2 17 C1.34 19.64 0.68 22.28 0 25 C1.65 25 3.3 25 5 25 C4.34 22.36 3.68 19.72 3 17 C2.67 17 2.34 17 2 17 Z " fill="#964594" transform="translate(244,79)"/>
<path d="M0 0 C19.66666667 0 39.33333333 0 59 0 C59.495 2.475 59.495 2.475 60 5 C53.565 5.495 53.565 5.495 47 6 C47 8.97 47 11.94 47 15 C50.3 15 53.6 15 57 15 C57.495 17.475 57.495 17.475 58 20 C54.37 20 50.74 20 47 20 C47 24.29 47 28.58 47 33 C51.62 33 56.24 33 61 33 C61.495 35.475 61.495 35.475 62 38 C52.1 38 42.2 38 32 38 C32 27.11 32 16.22 32 5 C29.03 5 26.06 5 23 5 C23 15.89 23 26.78 23 38 C18.05 38 13.1 38 8 38 C8 27.11 8 16.22 8 5 C5.36 5 2.72 5 0 5 C0 3.35 0 1.7 0 0 Z " fill="#964494" transform="translate(303,129)"/>
<path d="M0 0 C1.79244141 0.01740234 1.79244141 0.01740234 3.62109375 0.03515625 C5.41740234 0.04869141 5.41740234 0.04869141 7.25 0.0625 C8.17683594 0.07410156 9.10367187 0.08570313 10.05859375 0.09765625 C11.53052687 3.04152248 10.90795548 5.47155661 10.62109375 8.72265625 C10.51925781 9.91117188 10.41742188 11.0996875 10.3125 12.32421875 C10.22871094 13.23945313 10.14492188 14.1546875 10.05859375 15.09765625 C12.03859375 15.09765625 14.01859375 15.09765625 16.05859375 15.09765625 C16.05859375 10.14765625 16.05859375 5.19765625 16.05859375 0.09765625 C26.1171875 0 26.1171875 0 29.05859375 0.09765625 C30.05859375 1.09765625 30.05859375 1.09765625 30.17211914 4.60766602 C30.17196001 6.16814047 30.16626517 7.72862018 30.15625 9.2890625 C30.15483505 10.10890121 30.1534201 10.92873993 30.15196228 11.77342224 C30.14634664 14.40237007 30.13379154 17.03123398 30.12109375 19.66015625 C30.11608076 21.43814982 30.11151751 23.21614471 30.10742188 24.99414062 C30.09637214 29.3620117 30.07909706 33.72981973 30.05859375 38.09765625 C25.43859375 38.09765625 20.81859375 38.09765625 16.05859375 38.09765625 C16.05859375 32.15765625 16.05859375 26.21765625 16.05859375 20.09765625 C14.40859375 20.42765625 12.75859375 20.75765625 11.05859375 21.09765625 C11.05859375 26.70765625 11.05859375 32.31765625 11.05859375 38.09765625 C6.10859375 38.09765625 1.15859375 38.09765625 -3.94140625 38.09765625 C-3.96605553 32.84660183 -3.98424193 27.5955808 -3.99633789 22.34448242 C-4.00137843 20.55671604 -4.00821079 18.7689538 -4.0168457 16.98120117 C-4.02892355 14.41714457 -4.03463719 11.85314228 -4.0390625 9.2890625 C-4.04422379 8.48489395 -4.04938507 7.6807254 -4.05470276 6.85218811 C-4.0548984 4.9336391 -4.00342608 3.01520257 -3.94140625 1.09765625 C-2.94140625 0.09765625 -2.94140625 0.09765625 0 0 Z " fill="#964894" transform="translate(404.94140625,128.90234375)"/>
<path d="M0 0 C2.29942655 2.65871195 3.15274725 4.92348899 4 8.3125 C-0.43076923 11.38942308 -0.43076923 11.38942308 -3.3125 11 C-3.869375 10.773125 -4.42625 10.54625 -5 10.3125 C-5.66 8.0025 -6.32 5.6925 -7 3.3125 C-8.65 3.6425 -10.3 3.9725 -12 4.3125 C-12.94660961 7.15232882 -13.12867774 8.93105329 -13.1328125 11.875 C-13.13410156 12.75414063 -13.13539063 13.63328125 -13.13671875 14.5390625 C-13.13285156 15.45429687 -13.12898438 16.36953125 -13.125 17.3125 C-13.12886719 18.22773437 -13.13273437 19.14296875 -13.13671875 20.0859375 C-13.13478516 21.40464844 -13.13478516 21.40464844 -13.1328125 22.75 C-13.13168457 23.55308594 -13.13055664 24.35617188 -13.12939453 25.18359375 C-13.0804355 27.50134465 -13.0804355 27.50134465 -12 30.3125 C-11.01 30.3125 -10.02 30.3125 -9 30.3125 C-8.67 26.6825 -8.34 23.0525 -8 19.3125 C-9.65 19.3125 -11.3 19.3125 -13 19.3125 C-12.67 17.6625 -12.34 16.0125 -12 14.3125 C-6.39 14.3125 -0.78 14.3125 5 14.3125 C5 21.2425 5 28.1725 5 35.3125 C1.29088058 35.4207077 -2.41506456 35.49992278 -6.125 35.5625 C-7.17171875 35.59601563 -8.2184375 35.62953125 -9.296875 35.6640625 C-15.55861416 35.74332502 -19.26015837 35.5436757 -24 31.3125 C-28.93178154 25.84755289 -29.3505218 21.55550324 -29.28125 14.39453125 C-28.76215346 8.7060983 -26.62206426 4.97840383 -22.6875 0.9375 C-15.57838173 -3.36103663 -7.33513086 -4.12601111 0 0 Z " fill="#964693" transform="translate(330,81.6875)"/>
<path d="M0 0 C2.42672458 3.07385113 2.65246235 5.51768082 2.875 9.375 C0.235 9.705 -2.405 10.035 -5.125 10.375 C-5.455 8.065 -5.785 5.755 -6.125 3.375 C-8.98278033 2.69006627 -8.98278033 2.69006627 -12.125 2.375 C-13.115 3.035 -14.105 3.695 -15.125 4.375 C-14.0725555 7.69201474 -13.08560851 8.39681908 -9.97265625 10.12109375 C-8.0816097 10.98790645 -6.17696515 11.81705474 -4.26757812 12.64257812 C-0.10507521 14.55531606 2.04588615 16.1398475 3.875 20.375 C4.70377698 26.90161871 4.70377698 26.90161871 2.85546875 30.1875 C0.7125736 32.88068545 -0.8384605 34.27948683 -4.125 35.375 C-6.58036342 35.52175735 -9.04042552 35.59600698 -11.5 35.625 C-12.80710938 35.65078125 -14.11421875 35.6765625 -15.4609375 35.703125 C-19.30495748 35.3588844 -21.10994619 34.72126005 -24.125 32.375 C-26.5544516 28.7308226 -26.28679575 26.66258728 -26.125 22.375 C-22.66 21.88 -22.66 21.88 -19.125 21.375 C-17.125 28.125 -17.125 28.125 -17.125 30.375 C-14.485 30.375 -11.845 30.375 -9.125 30.375 C-9.125 28.725 -9.125 27.075 -9.125 25.375 C-10.02863281 24.91609375 -10.93226563 24.4571875 -11.86328125 23.984375 C-13.0549477 23.36508377 -14.24633966 22.74526415 -15.4375 22.125 C-16.60925781 21.52171875 -17.78101563 20.9184375 -18.98828125 20.296875 C-22.55545153 18.11126133 -24.48414487 16.41519069 -25.7421875 12.41015625 C-26.19984477 8.90838473 -26.3389276 6.88167064 -24.9375 3.5625 C-18.7147791 -3.9476804 -8.44954085 -4.39376124 0 0 Z " fill="#974594" transform="translate(229.125,81.625)"/>
<path d="M0 0 C3.17714708 3.38212431 3.03634281 5.51573066 2.9375 10.0625 C0.58311267 11.49194945 -0.54282433 12.14911261 -3.3125 11.6875 C-3.89 11.48125 -4.4675 11.275 -5.0625 11.0625 C-5.3925 8.7525 -5.7225 6.4425 -6.0625 4.0625 C-8.5375 3.5675 -8.5375 3.5675 -11.0625 3.0625 C-12.73256115 5.9913262 -13.3180038 8.10561971 -13.328125 11.46875 C-13.33070313 12.29503906 -13.33328125 13.12132812 -13.3359375 13.97265625 C-13.32820313 14.82730469 -13.32046875 15.68195313 -13.3125 16.5625 C-13.32023437 17.41714844 -13.32796875 18.27179688 -13.3359375 19.15234375 C-13.33335937 19.97863281 -13.33078125 20.80492187 -13.328125 21.65625 C-13.32586914 22.40583984 -13.32361328 23.15542969 -13.32128906 23.92773438 C-13.02983891 26.33192314 -12.25505983 27.97107928 -11.0625 30.0625 C-8.64630177 30.31280977 -8.64630177 30.31280977 -6.0625 30.0625 C-3.76616176 26.61799263 -3.52233515 24.12437717 -3.0625 20.0625 C2.6875 19.9375 2.6875 19.9375 4.9375 21.0625 C5.26170072 25.70937703 4.90557592 28.40187303 1.9375 32.0625 C-2.65609386 34.86743784 -6.21129859 35.49456179 -11.5625 35.5 C-13.46515625 35.52900391 -13.46515625 35.52900391 -15.40625 35.55859375 C-20.43869981 34.87577203 -23.55041307 32.78315065 -26.875 29 C-30.18616063 23.59758003 -29.58206597 17.16740012 -29.0625 11.0625 C-27.52510566 5.73175222 -24.85672055 1.96133103 -20.0625 -0.9375 C-13.37041144 -3.69306588 -6.19810449 -3.92124978 0 0 Z " fill="#944694" transform="translate(394.0625,131.9375)"/>
<path d="M0 0 C1.28132813 0.00902344 2.56265625 0.01804687 3.8828125 0.02734375 C4.87023437 0.03894531 5.85765625 0.05054687 6.875 0.0625 C5.885 0.5575 5.885 0.5575 4.875 1.0625 C4.82115479 3.35391286 4.78227913 5.64568188 4.75 7.9375 C4.72679687 9.21367188 4.70359375 10.48984375 4.6796875 11.8046875 C4.51858476 15.14843338 4.51858476 15.14843338 6.875 17.0625 C8.195 15.7425 9.515 14.4225 10.875 13.0625 C13 17.6875 13 17.6875 11.875 21.0625 C11.78274789 22.56024018 11.7449981 24.06192974 11.75 25.5625 C11.74742187 26.3359375 11.74484375 27.109375 11.7421875 27.90625 C11.79354187 30.24697017 11.79354187 30.24697017 12.875 33.0625 C12.545 33.7225 12.215 34.3825 11.875 35.0625 C11.215 35.0625 10.555 35.0625 9.875 35.0625 C8.3942152 32.1009304 8.52185963 29.22743705 8.3125 25.9375 C8.18681641 24.01550781 8.18681641 24.01550781 8.05859375 22.0546875 C7.99800781 21.06726563 7.93742187 20.07984375 7.875 19.0625 C6.885 19.0625 5.895 19.0625 4.875 19.0625 C5.205 24.6725 5.535 30.2825 5.875 36.0625 C0.925 36.0625 -4.025 36.0625 -9.125 36.0625 C-9.125 24.5125 -9.125 12.9625 -9.125 1.0625 C-6.12186252 -0.43906874 -3.33432478 -0.03031204 0 0 Z " fill="#9D419A" transform="translate(347.125,80.9375)"/>
<path d="M0 0 C2.14576637 -0.02685938 4.29162645 -0.04633088 6.4375 -0.0625 C7.63246094 -0.07410156 8.82742188 -0.08570312 10.05859375 -0.09765625 C13 0 13 0 14 1 C14.08858646 3.73894085 14.11523479 6.4525327 14.09765625 9.19140625 C14.0962413 10.01124496 14.09482635 10.83108368 14.09336853 11.67576599 C14.08775289 14.30471382 14.07519779 16.93357773 14.0625 19.5625 C14.05748701 21.34049357 14.05292376 23.11848846 14.04882812 24.89648438 C14.03777839 29.26435545 14.02050331 33.63216348 14 38 C9.38 38 4.76 38 0 38 C0 37.67 0 37.34 0 37 C3.63 37 7.26 37 11 37 C11.33 25.45 11.66 13.9 12 2 C8.37 2 4.74 2 1 2 C0.67 1.34 0.34 0.68 0 0 Z " fill="#8A4E8B" transform="translate(429,79)"/>
<path d="M0 0 C-0.16242188 0.77988281 -0.32484375 1.55976562 -0.4921875 2.36328125 C-1.13881221 6.994109 -1.14528536 11.51848615 -1.125 16.1875 C-1.12886719 17.08919922 -1.13273437 17.99089844 -1.13671875 18.91992188 C-1.13542969 19.78552734 -1.13414062 20.65113281 -1.1328125 21.54296875 C-1.13168457 22.32696045 -1.13055664 23.11095215 -1.12939453 23.91870117 C-1.07720249 26.19631307 -1.07720249 26.19631307 0 29 C0.99 29.33 1.98 29.66 3 30 C3 30.66 3 31.32 3 32 C2.2575 32.144375 1.515 32.28875 0.75 32.4375 C-1.52027739 32.90187492 -3.75759479 33.41863569 -6 34 C-6 33.01 -6 32.02 -6 31 C-5.01 31 -4.02 31 -3 31 C-3.144375 30.16855469 -3.28875 29.33710937 -3.4375 28.48046875 C-3.623125 27.39378906 -3.80875 26.30710937 -4 25.1875 C-4.185625 24.10855469 -4.37125 23.02960938 -4.5625 21.91796875 C-5.44439941 16.03601466 -4.72415914 10.3587981 -4.0234375 4.49609375 C-4.01570313 3.67238281 -4.00796875 2.84867187 -4 2 C-4.66 1.34 -5.32 0.68 -6 0 C-3.50907189 -1.24546405 -2.58919267 -0.7767578 0 0 Z " fill="#8C4999" transform="translate(318,83)"/>
<path d="M0 0 C0.66 0 1.32 0 2 0 C2.33 11.22 2.66 22.44 3 34 C1.515 34.495 1.515 34.495 0 35 C-0.167247 30.176384 -0.32784308 25.35261089 -0.48217773 20.52856445 C-0.53566959 18.88625066 -0.59100431 17.24399584 -0.64819336 15.60180664 C-0.72990479 13.24638594 -0.80506639 10.89083518 -0.87890625 8.53515625 C-0.90594131 7.79660904 -0.93297638 7.05806183 -0.96083069 6.2971344 C-1.0129438 4.53214384 -1.0118612 2.7657199 -1 1 C-0.67 0.67 -0.34 0.34 0 0 Z " fill="#B55D98" transform="translate(335,132)"/>
<path d="M0 0 C2.97 0.495 2.97 0.495 6 1 C6 1.66 6 2.32 6 3 C7.32 3 8.64 3 10 3 C10.33 5.31 10.66 7.62 11 10 C8.36 10.33 5.72 10.66 3 11 C2.87625 9.329375 2.87625 9.329375 2.75 7.625 C2.42126213 3.94246056 2.42126213 3.94246056 -0.0625 2.5625 C-0.701875 2.376875 -1.34125 2.19125 -2 2 C-1.34 2 -0.68 2 0 2 C0 1.34 0 0.68 0 0 Z " fill="#964A93" transform="translate(221,81)"/>
<path d="M0 0 C8.58 0 17.16 0 26 0 C26.33 1.65 26.66 3.3 27 5 C22.38 5.33 17.76 5.66 13 6 C13 5.01 13 4.02 13 3 C13.99 3.33 14.98 3.66 16 4 C15.67 3.34 15.34 2.68 15 2 C12.45058627 1.68758629 9.99638487 1.48696579 7.4375 1.375 C6.72658203 1.33632812 6.01566406 1.29765625 5.28320312 1.2578125 C3.52257575 1.16328217 1.76132272 1.08054183 0 1 C0 0.67 0 0.34 0 0 Z " fill="#834C85" transform="translate(336,129)"/>
<path d="M0 0 C3 1 3 1 4.6875 3.9375 C6 7 6 7 6 9 C7.0725 8.505 8.145 8.01 9.25 7.5 C12.25416808 6.11346089 13.45934895 6 17 6 C17.33 5.01 17.66 4.02 18 3 C18.66 3.33 19.32 3.66 20 4 C14.4222573 9.8792423 14.4222573 9.8792423 9.3359375 10.1328125 C8.35882813 10.13023437 7.38171875 10.12765625 6.375 10.125 C5.39273437 10.12757813 4.41046875 10.13015625 3.3984375 10.1328125 C1 10 1 10 0 9 C-0.07179964 7.48071962 -0.08392007 5.95832518 -0.0625 4.4375 C-0.05347656 3.61121094 -0.04445313 2.78492188 -0.03515625 1.93359375 C-0.02355469 1.29550781 -0.01195312 0.65742188 0 0 Z " fill="#8F4798" transform="translate(378,157)"/>
<path d="M0 0 C10.23 0 20.46 0 31 0 C31 1.65 31 3.3 31 5 C26.545 5.495 26.545 5.495 22 6 C22.33 5.01 22.66 4.02 23 3 C21.02 3 19.04 3 17 3 C17 2.34 17 1.68 17 1 C11.39 1 5.78 1 0 1 C0 0.67 0 0.34 0 0 Z " fill="#854888" transform="translate(303,129)"/>
<path d="M0 0 C3.22914752 -0.02917228 6.45826083 -0.04685663 9.6875 -0.0625 C10.59951172 -0.07087891 11.51152344 -0.07925781 12.45117188 -0.08789062 C13.33740234 -0.09111328 14.22363281 -0.09433594 15.13671875 -0.09765625 C15.94842529 -0.10289307 16.76013184 -0.10812988 17.59643555 -0.11352539 C20.14864673 0.0070209 22.51026137 0.440051 25 1 C22 3 22 3 18 3 C18.33 3.33 18.66 3.66 19 4 C19.04063832 5.66617115 19.042721 7.33388095 19 9 C18.566875 8.525625 18.13375 8.05125 17.6875 7.5625 C15.97690387 5.76313043 15.97690387 5.76313043 13 5 C13 4.34 13 3.68 13 3 C8.38 3 3.76 3 -1 3 C-0.67 2.01 -0.34 1.02 0 0 Z " fill="#8E5087" transform="translate(339,79)"/>
<path d="M0 0 C2 2 2 2 2.24291992 4.44262695 C2.23881104 5.44769287 2.23470215 6.45275879 2.23046875 7.48828125 C2.22853516 8.58720703 2.22660156 9.68613281 2.22460938 10.81835938 C2.21236328 11.97142578 2.20011719 13.12449219 2.1875 14.3125 C2.18685547 15.45396484 2.18621094 16.59542969 2.18554688 17.77148438 C2.15981848 22.66273807 2.09845244 27.21556849 1 32 C0.67 32 0.34 32 0 32 C-0.03738281 31.38511719 -0.07476562 30.77023438 -0.11328125 30.13671875 C-0.17902344 29.32847656 -0.24476563 28.52023438 -0.3125 27.6875 C-0.37050781 26.88699219 -0.42851562 26.08648437 -0.48828125 25.26171875 C-1.08206694 22.63727666 -1.95780294 21.69179328 -4 20 C-3.5155542 19.5877417 -3.0311084 19.1754834 -2.53198242 18.75073242 C-0.70832867 16.66668126 -0.59077411 15.71459137 -0.48828125 12.98828125 C-0.43510742 11.85229492 -0.43510742 11.85229492 -0.38085938 10.69335938 C-0.35830078 9.90767578 -0.33574219 9.12199219 -0.3125 8.3125 C-0.27833984 7.51521484 -0.24417969 6.71792969 -0.20898438 5.89648438 C-0.12661896 3.93148096 -0.06162933 1.96576304 0 0 Z " fill="#9D4BA7" transform="translate(296,81)"/>
<path d="M0 0 C0.33 0 0.66 0 1 0 C1 10.23 1 20.46 1 31 C0.34 31 -0.32 31 -1 31 C-1.84768257 23.5012696 -2.07053954 16.27316222 -1.625 8.75 C-1.58189697 7.99920166 -1.53879395 7.24840332 -1.49438477 6.47485352 C-1.1337939 1.1337939 -1.1337939 1.1337939 0 0 Z " fill="#954CA8" transform="translate(325,135)"/>
<path d="M0 0 C1.64284201 2.95711562 2.6442194 5.62008426 3 9 C2.34 9.66 1.68 10.32 1 11 C0.34 11 -0.32 11 -1 11 C-1 13.64 -1 16.28 -1 19 C-2.65 19.66 -4.3 20.32 -6 21 C-5.37942343 18.43635601 -4.75370801 15.87415074 -4.125 13.3125 C-3.95097656 12.59126953 -3.77695313 11.87003906 -3.59765625 11.12695312 C-2.64902134 7.27971155 -1.59509159 3.64284431 0 0 Z " fill="#A14C85" transform="translate(239,96)"/>
<path d="M0 0 C4.62 0 9.24 0 14 0 C14.33 1.65 14.66 3.3 15 5 C7.41 5 -0.18 5 -8 5 C-6 3 -6 3 -4.12060547 2.77294922 C-3.37697754 2.78342285 -2.63334961 2.79389648 -1.8671875 2.8046875 C-0.65869141 2.81435547 -0.65869141 2.81435547 0.57421875 2.82421875 C1.83685547 2.84935547 1.83685547 2.84935547 3.125 2.875 C4.39923828 2.88853516 4.39923828 2.88853516 5.69921875 2.90234375 C7.79959884 2.92594353 9.89983444 2.96181517 12 3 C9.35541621 1.67770811 7.32238699 1.90322806 4.375 1.9375 C2.87066406 1.95103516 2.87066406 1.95103516 1.3359375 1.96484375 C0.17964844 1.98224609 0.17964844 1.98224609 -1 2 C-0.67 1.34 -0.34 0.68 0 0 Z " fill="#854987" transform="translate(350,162)"/>
<path d="M0 0 C0.66 0.99 1.32 1.98 2 3 C2.66 2.34 3.32 1.68 4 1 C5.32 1 6.64 1 8 1 C8.66 2.98 9.32 4.96 10 7 C5.05 7 0.1 7 -5 7 C-4.01 6.34 -3.02 5.68 -2 5 C-2.66 4.01 -3.32 3.02 -4 2 C-3.34 1.67 -2.68 1.34 -2 1 C-2 1.66 -2 2.32 -2 3 C-1.34 3 -0.68 3 0 3 C0 2.01 0 1.02 0 0 Z " fill="#8F498A" transform="translate(264,110)"/>
<path d="M0 0 C0.66 0.66 1.32 1.32 2 2 C1.01 2.33 0.02 2.66 -1 3 C-1 3.66 -1 4.32 -1 5 C-2.32 5.33 -3.64 5.66 -5 6 C-5 5.34 -5 4.68 -5 4 C-9.48525648 4.656379 -13.66914029 5.70074209 -18 7 C-12.97239746 1.2106395 -7.64978443 -0.71160785 0 0 Z " fill="#8E4B88" transform="translate(323,79)"/>
<path d="M0 0 C0.33 1.65 0.66 3.3 1 5 C-2.63 5 -6.26 5 -10 5 C-10.33 3.68 -10.66 2.36 -11 1 C-7.26562152 0.12132271 -3.83225427 -0.08912219 0 0 Z " fill="#8B4A8F" transform="translate(360,144)"/>
<path d="M0 0 C1.98 0 3.96 0 6 0 C6.33 1.32 6.66 2.64 7 4 C6.67 3.34 6.34 2.68 6 2 C4.68 2 3.36 2 2 2 C2.01160156 3.09699219 2.02320313 4.19398437 2.03515625 5.32421875 C2.04453964 6.77864412 2.05363925 8.23307135 2.0625 9.6875 C2.07087891 10.40873047 2.07925781 11.12996094 2.08789062 11.87304688 C2.10543632 15.71555382 1.93524221 19.26639526 1 23 C0.67 23 0.34 23 0 23 C0 15.41 0 7.82 0 0 Z " fill="#985788" transform="translate(291,79)"/>
<path d="M0 0 C1.60725635 3.21451269 1.05748185 6.43612536 1 10 C2.65 10 4.3 10 6 10 C6.66 11.32 7.32 12.64 8 14 C6.35 14.33 4.7 14.66 3 15 C3 14.34 3 13.68 3 13 C2.01 13.33 1.02 13.66 0 14 C-2.49103242 9.31099779 -1.92737868 6.05842916 -1 1 C-0.67 0.67 -0.34 0.34 0 0 Z " fill="#9B4292" transform="translate(205,84)"/>
<path d="M0 0 C5.81261371 1.73982995 10.83169994 3.8110489 16 7 C15.67 7.66 15.34 8.32 15 9 C14.40832031 8.65066406 13.81664062 8.30132812 13.20703125 7.94140625 C12.41683594 7.48636719 11.62664062 7.03132813 10.8125 6.5625 C10.03519531 6.11003906 9.25789062 5.65757813 8.45703125 5.19140625 C5.95068023 3.97608501 3.74209635 3.42373425 1 3 C1 4.65 1 6.3 1 8 C-0.98 8.99 -0.98 8.99 -3 10 C-2.67 9.01 -2.34 8.02 -2 7 C-2.33 6.01 -2.66 5.02 -3 4 C-1.5625 1.8125 -1.5625 1.8125 0 0 Z " fill="#884689" transform="translate(214,90)"/>
<path d="M0 0 C0.33 0 0.66 0 1 0 C1.33 2.97 1.66 5.94 2 9 C2.66 9 3.32 9 4 9 C4 7.68 4 6.36 4 5 C4.66 5 5.32 5 6 5 C6 6.32 6 7.64 6 9 C7.32 9.33 8.64 9.66 10 10 C2.74 10 -4.52 10 -12 10 C-7.46780033 7.73390016 -5.82227075 8.07264024 -1 9 C-0.67 6.03 -0.34 3.06 0 0 Z " fill="#8A4589" transform="translate(369,107)"/>
<path d="M0 0 C0.33 0.99 0.66 1.98 1 3 C1.66 3 2.32 3 3 3 C2.34 4.32 1.68 5.64 1 7 C0.34 7 -0.32 7 -1 7 C-2.14077657 10.42232972 -2.09815117 13.08673217 -2.0625 16.6875 C-2.05347656 17.86699219 -2.04445313 19.04648438 -2.03515625 20.26171875 C-2.02355469 21.16535156 -2.01195312 22.06898438 -2 23 C-4.7241562 20.2758438 -4.3308802 18.6781266 -4.375 14.875 C-4.30744945 8.78869549 -3.21185959 5.11890122 0 0 Z " fill="#A25692" transform="translate(369,135)"/>
<path d="M0 0 C-1.95040379 1.95040379 -3.43385548 2.85113961 -5.875 4.0625 C-6.55304688 4.40410156 -7.23109375 4.74570313 -7.9296875 5.09765625 C-9.99914093 5.99962558 -11.7585563 6.7050732 -14 7 C-14.99 6.34 -15.98 5.68 -17 5 C-11.08511005 0.73577701 -7.19583571 -0.16734502 0 0 Z " fill="#904988" transform="translate(387,129)"/>
<path d="M0 0 C0.66 0 1.32 0 2 0 C3.86131271 3.16349591 4.24746869 5.47236155 4.1875 9.125 C4.18105469 9.99382812 4.17460937 10.86265625 4.16796875 11.7578125 C4 14 4 14 3 16 C2.34 16 1.68 16 1 16 C0.83044205 14.27111445 0.66448486 12.54187557 0.5 10.8125 C0.4071875 9.84957031 0.314375 8.88664062 0.21875 7.89453125 C0.01875156 5.24812333 -0.03879183 2.65239135 0 0 Z " fill="#A14891" transform="translate(428,96)"/>
<path d="M0 0 C2 3 2 3 2 7 C2.66 7.33 3.32 7.66 4 8 C0.777893 11.8665284 -2.14922412 12.88059018 -7 14 C-7.33 13.01 -7.66 12.02 -8 11 C-7.05125 10.855625 -6.1025 10.71125 -5.125 10.5625 C-1.87141432 9.37038249 -1.87141432 9.37038249 -1.15625 6.86328125 C-0.66828424 4.57773573 -0.27688708 2.3201228 0 0 Z " fill="#94488C" transform="translate(391,152)"/>
<path d="M0 0 C3.60153162 1.65475777 5.2974477 3.08925078 6.8125 6.6875 C7.204375 7.780625 7.59625 8.87375 8 10 C5.6875 11.5625 5.6875 11.5625 3 13 C2.01 12.67 1.02 12.34 0 12 C0.7425 11.1028125 0.7425 11.1028125 1.5 10.1875 C3.28276418 8.02970006 3.28276418 8.02970006 3 5 C2.0206121 3.97980427 1.02104551 2.97850195 0 2 C0 1.34 0 0.68 0 0 Z " fill="#904A92" transform="translate(326,80)"/>
<path d="M0 0 C2.12932581 3.19398872 2.21365943 3.87217358 2.0625 7.5 C1.94816757 10.48258506 2.03516907 12.10550722 3 15 C2.67 15.66 2.34 16.32 2 17 C1.34 17 0.68 17 0 17 C-1.41634833 14.16730334 -1.3463005 11.52533562 -1.5625 8.375 C-1.64628906 7.18648438 -1.73007812 5.99796875 -1.81640625 4.7734375 C-1.87699219 3.85820313 -1.93757813 2.94296875 -2 2 C-1.34 2 -0.68 2 0 2 C0 1.34 0 0.68 0 0 Z " fill="#9F4C8D" transform="translate(357,99)"/>
<path d="M0 0 C2.97 0.495 2.97 0.495 6 1 C6 1.66 6 2.32 6 3 C7.32 3.33 8.64 3.66 10 4 C9.01 4.495 9.01 4.495 8 5 C7.34 4.67 6.68 4.34 6 4 C5.67 4.99 5.34 5.98 5 7 C4.01 6.67 3.02 6.34 2 6 C2 5.34 2 4.68 2 4 C0.68 3.34 -0.64 2.68 -2 2 C-1.34 2 -0.68 2 0 2 C0 1.34 0 0.68 0 0 Z " fill="#9D418F" transform="translate(221,81)"/>
<path d="M0 0 C0.33 0 0.66 0 1 0 C1.33 2.97 1.66 5.94 2 9 C2.33 9 2.66 9 3 9 C3 12.3 3 15.6 3 19 C2.01 19.33 1.02 19.66 0 20 C0 13.4 0 6.8 0 0 Z " fill="#A46185" transform="translate(335,147)"/>
<path d="M0 0 C0.66 0.33 1.32 0.66 2 1 C-3.60276846 6.90562081 -3.60276846 6.90562081 -8.48046875 7.09765625 C-9.37378906 7.08605469 -10.26710938 7.07445312 -11.1875 7.0625 C-12.53908203 7.04896484 -12.53908203 7.04896484 -13.91796875 7.03515625 C-14.60503906 7.02355469 -15.29210937 7.01195312 -16 7 C-12.73225543 4.82150362 -10.83815045 4.52680496 -7 4 C-5.329375 3.7215625 -5.329375 3.7215625 -3.625 3.4375 C-2.75875 3.293125 -1.8925 3.14875 -1 3 C-0.67 2.01 -0.34 1.02 0 0 Z " fill="#814686" transform="translate(396,160)"/>
<path d="M0 0 C0.99 0 1.98 0 3 0 C5.1875 2.5 5.1875 2.5 7 5 C6.67 5.66 6.34 6.32 6 7 C4.68 7 3.36 7 2 7 C2 5.68 2 4.36 2 3 C1.34 4.32 0.68 5.64 0 7 C-0.66 6.67 -1.32 6.34 -2 6 C-1.34 4.02 -0.68 2.04 0 0 Z " fill="#9E459E" transform="translate(373,109)"/>
<path d="M0 0 C0.66 0.33 1.32 0.66 2 1 C2 3.64 2 6.28 2 9 C3.32 9.33 4.64 9.66 6 10 C3.36 10 0.72 10 -2 10 C-1.85950482 8.52031676 -1.71245174 7.04125484 -1.5625 5.5625 C-1.48128906 4.73878906 -1.40007812 3.91507813 -1.31640625 3.06640625 C-1 1 -1 1 0 0 Z " fill="#984CA5" transform="translate(348,135)"/>
<path d="M0 0 C3.96 0 7.92 0 12 0 C12 0.33 12 0.66 12 1 C10.02 1.33 8.04 1.66 6 2 C6.33 3.32 6.66 4.64 7 6 C4.03 5.505 4.03 5.505 1 5 C0.67 3.35 0.34 1.7 0 0 Z " fill="#8E498A" transform="translate(402,129)"/>
<path d="M0 0 C0.66 0.33 1.32 0.66 2 1 C2 1.66 2 2.32 2 3 C3.98 3 5.96 3 8 3 C4.31912647 5.45391569 1.55644412 5.22802759 -2.6875 5.125 C-3.7403418 5.11146484 -3.7403418 5.11146484 -4.81445312 5.09765625 C-6.54311525 5.07413704 -8.27160145 5.03826713 -10 5 C-10 4.67 -10 4.34 -10 4 C-8.906875 3.71125 -7.81375 3.4225 -6.6875 3.125 C-2.95986155 2.18106796 -2.95986155 2.18106796 0 0 Z " fill="#874B83" transform="translate(220,112)"/>
<path d="M0 0 C2 2 2 2 2.4375 5.8125 C2.37730823 9.48419817 2.03190094 9.96171887 -0.5 13 C-1.325 13.66 -2.15 14.32 -3 15 C-3 13.35 -3 11.7 -3 10 C-2.01 10 -1.02 10 0 10 C0 6.7 0 3.4 0 0 Z " fill="#854C8F" transform="translate(231,100)"/>
<path d="M0 0 C10.15317287 0.35010941 10.15317287 0.35010941 13.6875 3.0625 C14.120625 3.701875 14.55375 4.34125 15 5 C14.01 5 13.02 5 12 5 C12 4.34 12 3.68 12 3 C9.03 2.505 9.03 2.505 6 2 C6 2.66 6 3.32 6 4 C3.69 4.66 1.38 5.32 -1 6 C-1 5.34 -1 4.68 -1 4 C0.32 3.34 1.64 2.68 3 2 C2.01 1.34 1.02 0.68 0 0 Z " fill="#834985" transform="translate(215,79)"/>
<path d="M0 0 C1.98 0.99 1.98 0.99 4 2 C4 5.63 4 9.26 4 13 C3.34 13 2.68 13 2 13 C1.34 8.71 0.68 4.42 0 0 Z " fill="#9356A0" transform="translate(346,149)"/>
<path d="M0 0 C2.31 0 4.62 0 7 0 C7.33 0.66 7.66 1.32 8 2 C7.01 3.485 7.01 3.485 6 5 C3.03 4.505 3.03 4.505 0 4 C0 2.68 0 1.36 0 0 Z " fill="#8C3E8A" transform="translate(416,145)"/>
<path d="M0 0 C2.475 0.495 2.475 0.495 5 1 C5.103125 1.556875 5.20625 2.11375 5.3125 2.6875 C6.13133577 5.44176578 7.45853781 7.58727657 9 10 C8.34 10.66 7.68 11.32 7 12 C5.83061933 10.18924982 4.66456267 8.37635257 3.5 6.5625 C2.8503125 5.55316406 2.200625 4.54382813 1.53125 3.50390625 C0 1 0 1 0 0 Z " fill="#9A4D84" transform="translate(275,100)"/>
<path d="M0 0 C2.14867155 3.22300732 2.40779872 4.78318881 2.75 8.5625 C2.84796875 9.53316406 2.9459375 10.50382812 3.046875 11.50390625 C3 14 3 14 1 16 C0 15 0 15 -0.09765625 11.62109375 C-0.09098369 10.22652923 -0.07902532 8.83198257 -0.0625 7.4375 C-0.05798828 6.72658203 -0.05347656 6.01566406 -0.04882812 5.28320312 C-0.03700864 3.52209987 -0.01907263 1.76103964 0 0 Z " fill="#A4509D" transform="translate(405,96)"/>
<path d="M0 0 C2.64 0 5.28 0 8 0 C8 0.66 8 1.32 8 2 C7.34 2 6.68 2 6 2 C6.33 2.99 6.66 3.98 7 5 C5.35 5 3.7 5 2 5 C1.34 3.35 0.68 1.7 0 0 Z " fill="#904C8E" transform="translate(268,79)"/>
<path d="M0 0 C0 1.65 0 3.3 0 5 C-0.99 5.33 -1.98 5.66 -3 6 C-2.67 4.35 -2.34 2.7 -2 1 C-5.11332248 1.66868314 -5.11332248 1.66868314 -6.1875 4.0625 C-6.455625 4.701875 -6.72375 5.34125 -7 6 C-7.33 4.02 -7.66 2.04 -8 0 C-4.71303767 -0.79953138 -3.28976808 -1.09658936 0 0 Z " fill="#905088" transform="translate(211,104)"/>
<path d="M0 0 C3.96 0 7.92 0 12 0 C12 0.66 12 1.32 12 2 C11.06027344 2.09087891 11.06027344 2.09087891 10.1015625 2.18359375 C9.28429687 2.26738281 8.46703125 2.35117188 7.625 2.4375 C6.81289063 2.51871094 6.00078125 2.59992188 5.1640625 2.68359375 C2.95727195 2.89090114 2.95727195 2.89090114 1 4 C0.67 2.68 0.34 1.36 0 0 Z " fill="#8D4E83" transform="translate(382,79)"/>
<path d="M0 0 C1.9375 0.6875 1.9375 0.6875 4 2 C4.75 4.625 4.75 4.625 5 7 C3.0625 7.5625 3.0625 7.5625 1 8 C0 7 0 7 -0.0625 3.4375 C-0.041875 2.303125 -0.02125 1.16875 0 0 Z " fill="#A14799" transform="translate(267,104)"/>
<path d="M0 0 C1.74627478 2.61941217 2.38722388 4.03824877 3 7 C0.36 7 -2.28 7 -5 7 C-4.01 6.34 -3.02 5.68 -2 5 C-2.66 4.01 -3.32 3.02 -4 2 C-3.34 1.67 -2.68 1.34 -2 1 C-2 1.66 -2 2.32 -2 3 C-1.34 3 -0.68 3 0 3 C0 2.01 0 1.02 0 0 Z " fill="#844586" transform="translate(264,110)"/>
<path d="M0 0 C0.33 0 0.66 0 1 0 C1 2.97 1 5.94 1 9 C-1.97 8.505 -1.97 8.505 -5 8 C-5 7.01 -5 6.02 -5 5 C-3.68 4.67 -2.36 4.34 -1 4 C-0.67 2.68 -0.34 1.36 0 0 Z " fill="#915696" transform="translate(297,108)"/>
<path d="M0 0 C3.96 0 7.92 0 12 0 C12 0.66 12 1.32 12 2 C8.7 2.33 5.4 2.66 2 3 C1.34 2.01 0.68 1.02 0 0 Z " fill="#8E5387" transform="translate(244,79)"/>
<path d="M0 0 C0.33 0 0.66 0 1 0 C1 1.98 1 3.96 1 6 C1.66 6 2.32 6 3 6 C3 6.66 3 7.32 3 8 C1.35 7.67 -0.3 7.34 -2 7 C-2 5.35 -2 3.7 -2 2 C-1.34 2 -0.68 2 0 2 C0 1.34 0 0.68 0 0 Z " fill="#9F3B9F" transform="translate(413,159)"/>
<path d="M0 0 C0.33 0 0.66 0 1 0 C1 3.63 1 7.26 1 11 C2.98 11.495 2.98 11.495 5 12 C4.67 12.99 4.34 13.98 4 15 C3.01 14.67 2.02 14.34 1 14 C-0.38226016 11.23547967 -0.09525387 8.9538637 -0.0625 5.875 C-0.05347656 4.77929688 -0.04445313 3.68359375 -0.03515625 2.5546875 C-0.02355469 1.71164063 -0.01195312 0.86859375 0 0 Z " fill="#87438F" transform="translate(351,84)"/>
<path d="M0 0 C2 3 2 3 2 7 C2.66 7.33 3.32 7.66 4 8 C3.01 9.485 3.01 9.485 2 11 C1.34 11 0.68 11 0 11 C0 7.37 0 3.74 0 0 Z " fill="#9C4E92" transform="translate(391,152)"/>
<path d="M0 0 C2.31 0 4.62 0 7 0 C6.67 0.99 6.34 1.98 6 3 C3.69 3 1.38 3 -1 3 C-0.67 2.01 -0.34 1.02 0 0 Z " fill="#964198" transform="translate(355,130)"/>
<path d="M0 0 C0 0.66 0 1.32 0 2 C-1.11375 1.95875 -2.2275 1.9175 -3.375 1.875 C-7.04366025 1.58878141 -7.04366025 1.58878141 -9 4 C-9.33 3.01 -9.66 2.02 -10 1 C-6.21812119 -0.83691257 -4.05431692 -1.15837626 0 0 Z " fill="#964499" transform="translate(390,131)"/>
<path d="M0 0 C0.33 1.32 0.66 2.64 1 4 C2.32 4.33 3.64 4.66 5 5 C1.04 5 -2.92 5 -7 5 C-5.68 4.01 -4.36 3.02 -3 2 C-2.01 2.33 -1.02 2.66 0 3 C0 2.01 0 1.02 0 0 Z " fill="#8D4589" transform="translate(321,112)"/>
<path d="M0 0 C1.64284201 2.95711562 2.6442194 5.62008426 3 9 C2.34 9.66 1.68 10.32 1 11 C-1.03684712 6.92630576 -1.0257259 4.41062136 0 0 Z " fill="#9F4B97" transform="translate(239,96)"/>
<path d="M0 0 C0.66 0 1.32 0 2 0 C2.33 2.97 2.66 5.94 3 9 C2.01 9 1.02 9 0 9 C0 6.03 0 3.06 0 0 Z " fill="#A04CA2" transform="translate(428,96)"/>
<path d="M0 0 C1.38226016 2.76452033 1.09525387 5.0461363 1.0625 8.125 C1.05347656 9.22070312 1.04445312 10.31640625 1.03515625 11.4453125 C1.02355469 12.28835937 1.01195312 13.13140625 1 14 C-1.86274764 11.13725236 -1.9615008 7.89611889 -2 4 C-1.0625 1.5 -1.0625 1.5 0 0 Z " fill="#A55D92" transform="translate(205,84)"/>
<path d="M0 0 C0.66 0 1.32 0 2 0 C2 1.65 2 3.3 2 5 C1.34 5 0.68 5 0 5 C0.66 6.32 1.32 7.64 2 9 C0.68 9.33 -0.64 9.66 -2 10 C-1.54177532 6.53058454 -1.10868317 3.32604951 0 0 Z " fill="#9E528C" transform="translate(381,81)"/>
<path d="M0 0 C1.5 1.125 1.5 1.125 3 3 C3.1875 6.1875 3.1875 6.1875 3 9 C1.35 9.33 -0.3 9.66 -2 10 C-1.67 9.46375 -1.34 8.9275 -1 8.375 C0.22699204 5.4608939 0.14233286 3.13132292 0 0 Z " fill="#834E8A" transform="translate(394,133)"/>
<path d="M0 0 C3.57104439 1.87949705 5.54744301 3.17053157 7 7 C5.35 7.33 3.7 7.66 2 8 C2.33 7.01 2.66 6.02 3 5 C2.2575 4.319375 2.2575 4.319375 1.5 3.625 C0 2 0 2 0 0 Z " fill="#86498A" transform="translate(326,80)"/>
<path d="M0 0 C0.66 0 1.32 0 2 0 C2.43200679 4.75207471 0.98489083 7.78210698 -1 12 C-1.66 11.67 -2.32 11.34 -3 11 C-2.01 7.37 -1.02 3.74 0 0 Z " fill="#A85797" transform="translate(428,80)"/>
<path d="M0 0 C0.33 0 0.66 0 1 0 C1 3.96 1 7.92 1 12 C-0.65 12 -2.3 12 -4 12 C-3.505 11.67 -3.01 11.34 -2.5 11 C-0.13468936 7.84625248 -0.87480701 4.88098259 -1 1 C-0.67 0.67 -0.34 0.34 0 0 Z " fill="#82488B" transform="translate(411,105)"/>
<path d="M0 0 C1.98 0 3.96 0 6 0 C6.33 1.32 6.66 2.64 7 4 C4.03 4 1.06 4 -2 4 C-2 3.67 -2 3.34 -2 3 C-0.35 2.67 1.3 2.34 3 2 C2.01 1.34 1.02 0.68 0 0 Z " fill="#8E3B88" transform="translate(244,105)"/>
<path d="M0 0 C1.5625 1.25 1.5625 1.25 3 3 C2.6875 5.0625 2.6875 5.0625 2 7 C2 7.66 2 8.32 2 9 C1.34 9 0.68 9 0 9 C-0.87890625 2.84765625 -0.87890625 2.84765625 -1 1 C-0.67 0.67 -0.34 0.34 0 0 Z " fill="#9D518C" transform="translate(252,108)"/>
<path d="M0 0 C0.763125 0.061875 1.52625 0.12375 2.3125 0.1875 C2.6425 1.1775 2.9725 2.1675 3.3125 3.1875 C0.3425 3.1875 -2.6275 3.1875 -5.6875 3.1875 C-2.6875 0.1875 -2.6875 0.1875 0 0 Z " fill="#913F8D" transform="translate(408.6875,163.8125)"/>
<path d="M0 0 C1.32 1.32 2.64 2.64 4 4 C2.35 4.66 0.7 5.32 -1 6 C-1.042721 4.33388095 -1.04063832 2.66617115 -1 1 C-0.67 0.67 -0.34 0.34 0 0 Z " fill="#A04D8D" transform="translate(391,111)"/>
<path d="M0 0 C1.2077558 3.62326739 0.54311128 4.64146369 -1 8 C-1.66 7.67 -2.32 7.34 -3 7 C-2.67 5.35 -2.34 3.7 -2 2 C-1.34 2 -0.68 2 0 2 C0 1.34 0 0.68 0 0 Z " fill="#884A93" transform="translate(245,96)"/>
<path d="M0 0 C0.33 0 0.66 0 1 0 C1.33 2.31 1.66 4.62 2 7 C0.35 6.67 -1.3 6.34 -3 6 C-2.67 4.68 -2.34 3.36 -2 2 C-1.34 2 -0.68 2 0 2 C0 1.34 0 0.68 0 0 Z " fill="#9E40A0" transform="translate(276,79)"/>
</svg>
