<?xml version="1.0" encoding="UTF-8"?>
<svg version="1.1" xmlns="http://www.w3.org/2000/svg" width="232" height="218">
<path d="M0 0 C76.56 0 153.12 0 232 0 C232 71.94 232 143.88 232 218 C155.44 218 78.88 218 0 218 C0 146.06 0 74.12 0 0 Z " fill="#FDFDFD" transform="translate(0,0)"/>
<path d="M0 0 C8.54940367 2.07448264 17.01770328 4.25490382 25.42871094 6.84375 C46.05807532 13.0573333 60.20310998 10.93347069 80.27734375 4.1640625 C85.79980385 2.31621345 91.25381557 0.93297818 97 0 C97.050211 3.91027835 97.08609395 7.82042656 97.10986328 11.73095703 C97.12462224 13.69961157 97.15006161 15.6681769 97.17578125 17.63671875 C97.21243713 24.85792618 96.80110475 31.47878443 95.14013672 38.52050781 C94.95937253 41.7188373 96.01060892 42.58797933 98 45 C98.58292488 51.99509862 98.04113327 58.82471286 93.5 64.4375 C91 67 91 67 89 68 C88.01850685 70.34434959 87.11787126 72.67663679 86.25 75.0625 C84.49044947 79.74616387 82.78589347 83.72537014 79.5625 87.625 C77.31439898 90.26766828 77.31439898 90.26766828 76.875 93.6875 C80.25596214 100.63725551 85.11738972 103.05682789 92 106 C96.09999486 107.36156926 100.24952481 108.44458283 104.4375 109.5 C105.571875 109.79769287 106.70625 110.09538574 107.875 110.40209961 C113.09375374 111.76746267 118.32187668 113.08510204 123.56640625 114.34765625 C136.63883771 117.53125496 147.0418503 121.42612082 155 133 C160.08489261 142.58754561 163.55560743 154.05241273 162 165 C160.17104692 168.37652876 158.92896654 169.60017959 155.42103386 171.10996819 C151.15628698 172.21950424 147.27472084 172.27084176 142.88845825 172.24050903 C141.52707082 172.24307231 141.52707082 172.24307231 140.13818061 172.24568737 C137.10261905 172.24897677 134.06727942 172.23798753 131.03173828 172.22705078 C128.85354111 172.22648655 126.67534356 172.22680346 124.49714661 172.22793579 C118.58650007 172.22850983 112.67593463 172.21674707 106.76530695 172.20278788 C100.58734708 172.19028919 94.40938536 172.1891107 88.23141479 172.18673706 C76.53370267 172.18051977 64.83602791 172.16410554 53.13833225 172.14403808 C39.8204338 172.12168687 26.50253735 172.1106876 13.18462396 172.10064721 C-14.21027141 172.07973956 -41.60513361 172.0445587 -69 172 C-69.0180236 169.92849901 -69.03085224 167.85695241 -69.04150391 165.78540039 C-69.04920807 164.63181534 -69.05691223 163.47823029 -69.06484985 162.28968811 C-68.98361767 158.16896116 -68.39510188 154.41702371 -67.375 150.4375 C-67.19751221 149.72352051 -67.02002441 149.00954102 -66.8371582 148.27392578 C-63.92060413 137.24373359 -59.31483357 127.50227461 -49.37890625 121.38671875 C-40.35472333 116.55704317 -30.80385544 114.09603005 -20.8984375 111.8203125 C-19.07801627 111.40151399 -17.25770517 110.98223653 -15.4375 110.5625 C-14.53660645 110.35520264 -13.63571289 110.14790527 -12.70751953 109.93432617 C-6.382803 108.43709579 -0.496427 106.53369313 5.50390625 104.015625 C8 103 8 103 10.2734375 102.46484375 C12.16214538 102.16577988 12.16214538 102.16577988 13.0625 100.3125 C13.5265625 99.1678125 13.5265625 99.1678125 14 98 C14.99302533 95.99652784 15.99236127 93.99616236 17 92 C15.96939453 90.60587891 15.96939453 90.60587891 14.91796875 89.18359375 C14.00745458 87.93515679 13.09731843 86.68644408 12.1875 85.4375 C11.73568359 84.82841797 11.28386719 84.21933594 10.81835938 83.59179688 C7.01681424 78.3473295 4 73.6678228 4 67 C3.2575 66.835 2.515 66.67 1.75 66.5 C-1.66653438 64.63643579 -2.69840706 62.9824686 -4.27734375 59.4921875 C-5.82158832 54.16663055 -6.0878543 47.92731703 -4.140625 42.6875 C-3 41 -3 41 -0.375 40.25 C0.40875 40.1675 1.1925 40.085 2 40 C1.67402832 39.00798584 1.34805664 38.01597168 1.01220703 36.99389648 C-0.11637949 33.02742061 -0.25708438 29.20102696 -0.1953125 25.09765625 C-0.1924826 24.3750914 -0.18965271 23.65252655 -0.18673706 22.9080658 C-0.17564386 20.62603384 -0.15056088 18.34441103 -0.125 16.0625 C-0.11495611 14.50456301 -0.10583274 12.94661979 -0.09765625 11.38867188 C-0.07574033 7.59229301 -0.04128738 3.7962156 0 0 Z " fill="#010101" transform="translate(69,46)"/>
<path d="M0 0 C0.8048584 0.22042969 1.6097168 0.44085938 2.43896484 0.66796875 C10.94871955 3.03025719 19.39018137 5.62937705 27.828125 8.234375 C32.78910858 9.76478194 37.76488013 11.23796587 42.75 12.6875 C48.33669972 14.31545158 53.87440709 16.03729518 59.375 17.9375 C59.705 19.9175 60.035 21.8975 60.375 23.9375 C56.94604965 26.14415247 53.79218877 27.59150042 49.88208008 28.73095703 C48.80779251 29.04783478 47.73350494 29.36471252 46.62666321 29.69119263 C45.47755966 30.02255219 44.32845612 30.35391174 43.14453125 30.6953125 C41.95776291 31.0438327 40.77099457 31.39235291 39.54826355 31.75143433 C36.40556421 32.67332106 33.26123636 33.58933666 30.11590576 34.50219727 C25.67347409 35.79295602 21.23406308 37.09405765 16.79460144 38.39498901 C14.4326585 39.08648883 12.06997349 39.77545978 9.70649719 40.46170044 C8.64166611 40.77227386 7.57683502 41.08284729 6.47973633 41.40283203 C5.53995438 41.67580109 4.60017242 41.94877014 3.63191223 42.23001099 C1.37196923 42.8726849 1.37196923 42.8726849 -0.625 43.9375 C-13.58019033 45.21172813 -25.63317758 43.98537336 -37.90429688 39.85009766 C-41.20149101 38.74412927 -44.51391286 37.69057629 -47.828125 36.63671875 C-53.85665788 34.71818182 -59.87429613 32.76790614 -65.88623047 30.79785156 C-68.10939866 30.09946997 -70.36429451 29.50267637 -72.625 28.9375 C-72.625 37.8475 -72.625 46.7575 -72.625 55.9375 C-71.965 55.9375 -71.305 55.9375 -70.625 55.9375 C-70.625 58.9075 -70.625 61.8775 -70.625 64.9375 C-71.285 64.9375 -71.945 64.9375 -72.625 64.9375 C-72.274375 65.515 -71.92375 66.0925 -71.5625 66.6875 C-70.47582593 69.29551776 -70.69434867 70.33167629 -71.625 72.9375 C-73.935 72.9375 -76.245 72.9375 -78.625 72.9375 C-79.55565133 70.33167629 -79.77417407 69.29551776 -78.6875 66.6875 C-78.336875 66.11 -77.98625 65.5325 -77.625 64.9375 C-78.285 64.9375 -78.945 64.9375 -79.625 64.9375 C-79.625 61.9675 -79.625 58.9975 -79.625 55.9375 C-78.965 55.9375 -78.305 55.9375 -77.625 55.9375 C-77.64441119 51.86153071 -77.69609326 47.78737198 -77.77758789 43.7121582 C-77.80077078 42.32621037 -77.81516441 40.9400863 -77.82055664 39.55395508 C-77.82984197 37.5604668 -77.87345978 35.56723172 -77.91796875 33.57421875 C-77.9336792 32.37498779 -77.94938965 31.17575684 -77.96557617 29.94018555 C-78.31505872 26.73363345 -78.31505872 26.73363345 -81.13012695 25.17895508 C-82.36508911 24.56443481 -82.36508911 24.56443481 -83.625 23.9375 C-84.25 21.4375 -84.25 21.4375 -83.625 18.9375 C-80.14446136 16.47228628 -76.66548194 15.16204004 -72.60058594 13.94458008 C-70.81282745 13.40435966 -70.81282745 13.40435966 -68.98895264 12.85322571 C-67.69591187 12.47064754 -66.40271525 12.08859577 -65.109375 11.70703125 C-63.7703706 11.30801005 -62.43144362 10.90872899 -61.09259033 10.50920105 C-58.28987365 9.67483345 -55.48557284 8.84606 -52.68017578 8.02075195 C-49.10452783 6.96799273 -45.5343724 5.89779201 -41.96535873 4.82278919 C-39.20185806 3.99325558 -36.43509009 3.17507219 -33.66730499 2.35996056 C-32.35059591 1.9703585 -31.03502282 1.57689371 -29.7206955 1.17933083 C-19.05524918 -2.03843975 -10.77514361 -3.07125536 0 0 Z " fill="#010101" transform="translate(130.625,2.0625)"/>
<path d="M0 0 C11.43330384 1.87309016 11.43330384 1.87309016 16.4765625 2.8515625 C32.6682192 5.9296639 47.58181001 5.64238259 63.72509766 2.38891602 C67.13594208 1.80579999 70.56482033 1.41545562 74 1 C74.17561163 5.72800551 74.30123743 10.45403596 74.38452148 15.18457031 C74.41930368 16.78679539 74.46674978 18.38880561 74.52807617 19.99023438 C75.07193417 34.57842538 72.12852996 44.13287219 62.5625 55.5625 C55.61078196 62.76249369 48.08141571 67.19304013 37.875 67.5 C28.18401199 67.33424764 19.94266944 62.74501728 12.94921875 56.19140625 C5.29868758 47.59030808 -0.3544088 39.37561961 -0.1953125 27.63671875 C-0.1924826 26.84473587 -0.18965271 26.05275299 -0.18673706 25.23677063 C-0.17558863 22.72019001 -0.15049422 20.20397211 -0.125 17.6875 C-0.11496329 15.97591662 -0.10583864 14.26432763 -0.09765625 12.55273438 C-0.07566681 8.36835094 -0.04117408 4.18423686 0 0 Z " fill="#FCFCFC" transform="translate(78,80)"/>
<path d="M0 0 C4.73656704 1.77943626 8.98686067 4.16869072 13.37890625 6.66015625 C20.12243846 10.10729716 28.08660908 10.16608788 35.27734375 8.0234375 C40.54067471 5.90249078 44.57747665 3.55015596 49 0 C49.66 0 50.32 0 51 0 C52.76171875 2.01171875 52.76171875 2.01171875 54.6875 4.6875 C55.33074219 5.55761719 55.97398437 6.42773438 56.63671875 7.32421875 C58 10 58 10 57.8046875 12.6484375 C55.51516886 19.33916674 50.94218837 23.50277455 45 27 C35.78351552 31.27222458 24.77062543 31.58279689 15.1875 28.375 C6.58900727 24.75125931 -1.70581291 19.6334181 -6 11 C-5.6842844 5.93314963 -3.28388154 3.6206899 0 0 Z " fill="#FAFAFA" transform="translate(90,143)"/>
<path d="M0 0 C0.99 0.33 1.98 0.66 3 1 C3.56229448 11.72524662 3.56229448 11.72524662 0 16 C-0.33 16 -0.66 16 -1 16 C-1.02685095 13.52076199 -1.04676547 11.0418116 -1.0625 8.5625 C-1.07506836 7.50192383 -1.07506836 7.50192383 -1.08789062 6.41992188 C-1.09653588 4.61306441 -1.05220011 2.80612397 -1 1 C-0.67 0.67 -0.34 0.34 0 0 Z " fill="#E3E3E3" transform="translate(159,91)"/>
<path d="M0 0 C0.66 0 1.32 0 2 0 C3.50156874 3.00313748 3.09281204 5.79067522 3.0625 9.125 C3.05347656 10.40632813 3.04445313 11.68765625 3.03515625 13.0078125 C3.02355469 13.99523437 3.01195313 14.98265625 3 16 C0 14 0 14 -1 11 C-1.09267588 9.29367352 -1.12998202 7.58383413 -1.125 5.875 C-1.12757812 4.98554687 -1.13015625 4.09609375 -1.1328125 3.1796875 C-1 1 -1 1 0 0 Z " fill="#E4E4E4" transform="translate(70,91)"/>
<path d="M0 0 C0.66 0 1.32 0 2 0 C2 6.27 2 12.54 2 19 C-1.63 19 -5.26 19 -9 19 C-7.68 18.34 -6.36 17.68 -5 17 C-2.0438684 15.21363964 -2.0438684 15.21363964 0 12 C0.42598885 7.96625375 0.28998316 4.04043202 0 0 Z " fill="#E2E2E2" transform="translate(230,199)"/>
<path d="M0 0 C0.99 1.485 0.99 1.485 2 3 C4.96344755 6.19740394 7.05147515 8.02573757 11 10 C7.37 10 3.74 10 0 10 C0 6.7 0 3.4 0 0 Z " fill="#EEEEEE" transform="translate(0,208)"/>
</svg>
